<?xml version="1.0" encoding="UTF-8" standalone="no"?><!DOCTYPE svg PUBLIC "-//W3C//DTD SVG 1.1//EN"
  "http://www.w3.org/Graphics/SVG/1.1/DTD/svg11.dtd">
<svg width="100%" height="100%" viewBox="0 0 405 104" version="1.1" xmlns="http://www.w3.org/2000/svg"
     xml:space="preserve"><g id="logo-rooter-inc-outline"><path d="M0.097,1.4l34.223,0c15.743,0 22.473,7.757 22.473,21.332c0,13.006 -5.59,18.482 -13.576,19.622l0,0.228c4.563,0.343 8.671,2.625 10.838,6.502c2.052,3.65 2.168,9.128 2.168,13.919l0,6.729c0,4.565 0.456,8.443 1.026,9.583c0.57,1.142 1.369,1.94 2.395,2.395l0,1.142l-24.184,0c-1.484,-1.827 -1.711,-7.758 -1.711,-11.75c0,-3.994 -0.343,-8.1 -0.343,-12.092c0,-6.959 -2.282,-8.215 -6.275,-8.215l-4.22,0l0,32.057l-22.816,0l0,-81.452l0.002,0Zm22.815,34.338l3.309,0c3.765,0 7.756,-1.712 7.756,-9.584c0,-6.731 -3.308,-8.327 -8.441,-8.327l-2.624,0l0,17.911l0,0Z" /><path
  d="M116.676,51.936c0,17.454 -2.624,32.511 -27.036,32.511c-24.413,0 -27.037,-15.056 -27.037,-32.511c0,-17.34 2.624,-32.398 27.037,-32.398c24.412,0 27.036,15.058 27.036,32.398Zm-27.035,18.14c3.993,0 4.905,-3.766 4.905,-18.14c0,-14.373 -0.912,-18.138 -4.905,-18.138c-3.993,0 -4.906,3.765 -4.906,18.138c0,14.373 0.913,18.14 4.906,18.14Z"
  /><path
  d="M173.71,51.936c0,17.454 -2.624,32.511 -27.036,32.511c-24.412,0 -27.036,-15.056 -27.036,-32.511c0,-17.34 2.624,-32.398 27.036,-32.398c24.412,0 27.036,15.058 27.036,32.398Zm-27.036,18.14c3.993,0 4.905,-3.766 4.905,-18.14c0,-14.373 -0.912,-18.138 -4.905,-18.138c-3.992,0 -4.905,3.765 -4.905,18.138c0,14.373 0.912,18.14 4.905,18.14Z"
  /><path
  d="M181.577,2.997l22.131,0l0,18.138l7.757,0l0,14.374l-7.757,0l0,27.494c0,3.993 0.57,5.703 4.221,5.703c1.711,0 2.737,-0.115 3.536,-0.341l0,14.716c-1.825,0.227 -7.642,0.684 -10.951,0.684c-12.662,0 -18.937,-0.457 -18.937,-14.374l0,-33.882l-6.731,0l0,-14.374l6.731,0l0,-18.138Z"
  /><path
  d="M234.733,63.684c0,3.311 0.226,7.758 4.791,7.758c4.335,0 4.79,-3.99 4.79,-10.266l20.078,0c0,8.443 -2.279,14.262 -6.615,17.912c-4.334,3.649 -10.609,5.359 -18.139,5.359c-24.412,0 -27.036,-15.056 -27.036,-32.511c0,-17.34 2.624,-32.398 27.036,-32.398c25.211,0 25.438,15.743 25.438,35.022l0,1.028l-30.343,0l0,8.096Zm9.58,-23.384c0,-6.046 -1.368,-7.757 -4.904,-7.757c-3.193,0 -4.676,1.711 -4.676,7.757l0,3.65l9.58,0l0,-3.65Z"
  /><path
  d="M324.452,14.872c-6.269,1.166 -53.775,10.004 -53.775,10.004l-1.599,26.369c-0.001,0.001 -0.015,0.003 -0.015,0.003l0,32.339l22.133,0l0,-32.092c0,0 0,-7.089 0.205,-10.719c0.112,-1.968 -0.008,-4.306 2.681,-5.359c2.687,-1.055 38.767,-15.187 38.767,-15.187c0,0 -2.129,-6.525 -8.397,-5.358Z"
  /><path
  d="M270.342,22.734l17.921,-3.084c0,0 -0.416,-4.918 -0.499,-6.043c-0.084,-1.125 0.558,-2.408 2.291,-3.001c1.733,-0.593 25.337,-8.668 25.337,-8.668c0,0 -1.606,-2.655 -5.876,-1.75c-4.269,0.904 -31.378,6.501 -33.672,7.126c-2.293,0.624 -4.156,2.609 -4.375,4.708c-0.222,2.102 -1.127,10.712 -1.127,10.712Z"
  /><path
  d="M327.833,24.588c-0.143,-0.177 -0.358,-0.279 -0.583,-0.279c-0.228,0 -0.44,0.102 -0.582,0.279c-0.594,0.735 -5.797,7.287 -5.797,10.563c0,3.518 2.86,6.381 6.379,6.381c3.517,0 6.378,-2.862 6.378,-6.381c0,-3.276 -5.202,-9.828 -5.796,-10.563Zm-3.671,12.86c-0.397,0.109 -0.762,-0.326 -0.921,-0.524c-0.123,-0.151 -0.282,-0.453 -0.379,-0.843c-0.092,-0.39 -0.123,-0.546 -0.102,-0.894c0.023,-0.348 0.124,-0.81 0.523,-0.921c0.397,-0.111 0.894,0.164 0.921,0.522c0.026,0.357 -0.085,0.465 0.062,0.908c0.147,0.445 0.268,0.456 0.418,0.83c0.151,0.374 -0.123,0.81 -0.523,0.922Z"
  /><rect x="321.641" y="45.439" width="11.25" height="37.574"
                                              /><path
  d="M339.422,45.439l10.835,0l0,4.445l0.139,0c1.599,-3.334 4.86,-5.418 9.029,-5.418c6.39,0 9.792,3.194 9.792,10.418l0,28.129l-11.25,0l0,-25.629c0,-2.706 -1.182,-4.308 -3.266,-4.308c-2.153,0 -4.028,1.669 -4.028,5.352l0,24.585l-11.251,0l0,-37.574Z"
  /><path
  d="M393.944,59.608c0,-5.488 -1.249,-7.778 -4.237,-7.778c-3.747,0 -4.234,4.723 -4.234,12.43c0,8.473 0.486,12.36 4.234,12.36c3.335,0 4.1,-2.289 4.237,-8.887l10.421,0c-0.072,11.599 -4.653,16.252 -14.865,16.252c-14.169,0 -15.279,-9.933 -15.279,-21.115c0,-10.554 3.057,-18.404 15.279,-18.404c11.807,0 14.865,6.182 14.865,15.141l-10.421,0l0,0.001Z"
  /><path
  d="M0,91.099l8.138,0c2.326,0 4.545,0.938 4.545,3.515c0,2.304 -1.881,3.549 -5.241,3.549l-5.877,0l0,5.119l-1.564,0l0,-12.183l-0.001,0Zm1.564,5.903l6.046,0c2.621,0 3.382,-0.972 3.382,-2.389c0,-1.826 -1.267,-2.354 -3.065,-2.354l-6.362,0l0,4.743l-0.001,0Z"
  /><path d="M14.629,91.099l1.564,0l0,11.023l9.576,0l0,1.16l-11.14,0l0,-12.183Z"
                                              /><path
  d="M40.735,98.573c0,2.218 -0.761,5.016 -6.742,5.016c-5.981,0 -6.743,-2.798 -6.743,-5.016l0,-7.474l1.564,0l0,7.474c0,3.19 2.558,3.856 5.179,3.856c2.621,0 5.179,-0.666 5.179,-3.856l0,-7.474l1.563,0l0,7.474Z"
  /><path
  d="M59.338,91.099l2.22,0l0,12.183l-1.565,0l0,-10.528l-0.043,0l-6.657,10.528l-1.438,0l-6.638,-10.546l-0.042,0l0,10.546l-1.564,0l0,-12.183l2.283,0l6.721,10.596l6.723,-10.596Z"
  /><path
  d="M64.35,91.099l8.581,0c2.96,0 4.206,1.348 4.206,3.071c0,1.177 -0.802,2.27 -2.599,2.611l0,0.034c1.986,0.238 3.191,1.417 3.191,2.986c0,2.542 -2.663,3.481 -4.987,3.481l-8.392,0l0,-12.183Zm1.564,5.29l6.194,0c2.113,0 3.466,-0.547 3.466,-2.168c0.001,-1.484 -1.226,-1.962 -2.938,-1.962l-6.721,0l0,4.13Zm-0.001,5.733l6.574,0c2.03,0 3.552,-0.649 3.552,-2.321c0,-1.758 -1.353,-2.253 -3.171,-2.253l-6.954,0l0,4.574Z"
  /><rect x="80.184" y="91.099" width="1.565" height="12.183"
                                              /><path
  d="M84.707,91.099l1.882,0l10.547,10.408l0.042,0l0,-10.408l1.565,0l0,12.183l-1.818,0l-10.611,-10.409l-0.042,0l0,10.409l-1.565,0l0,-12.183Z"
  /><path
  d="M115.338,100.978l-0.043,0c-1.543,1.792 -3.319,2.611 -6.277,2.611c-5.115,0 -7.906,-2.594 -7.906,-6.399c0,-3.686 3.065,-6.398 8.075,-6.398c4.206,0 6.891,1.911 7.292,4.163l-1.691,0c-0.613,-2.064 -2.895,-3.003 -5.601,-3.003c-4.122,0 -6.384,2.03 -6.384,5.238c0,3.277 2.072,5.238 6.088,5.238c4.522,0 5.96,-2.081 6.425,-4.266l-5.538,0l0,-1.16l6.975,0l0,6.279l-1.204,0l-0.211,-2.303Z"
  /><path
  d="M135.59,99.579l-7.948,0l-2.049,3.703l-1.692,0l6.849,-12.183l1.818,0l6.849,12.183l-1.818,0l-2.009,-3.703Zm-3.952,-7.218l-3.36,6.057l6.679,0l-3.319,-6.057Z"
  /><path
  d="M140.687,91.099l1.88,0l10.548,10.408l0.043,0l0,-10.408l1.564,0l0,12.183l-1.818,0l-10.611,-10.409l-0.042,0l0,10.409l-1.564,0l0,-12.183Z"
  /><path
  d="M157.514,91.099l7.334,0c4.397,0 6.68,2.269 6.68,6.091c0,3.43 -2.22,6.092 -6.447,6.092l-7.567,0l0,-12.183l0,0Zm1.565,11.023l5.706,0c2.706,0 5.052,-1.196 5.052,-4.932c0,-3.224 -1.565,-4.931 -5.052,-4.931l-5.706,0l0,9.863Z"
  /><path
  d="M190.068,94.579c-0.211,-2.081 -2.303,-2.628 -4.734,-2.628c-2.431,0 -4.27,0.767 -4.27,2.15c0,1.587 1.839,1.962 5.517,2.457c2.748,0.375 5.496,0.888 5.496,3.225c0,2.985 -3.361,3.805 -6.299,3.805c-3.826,0 -6.616,-1.058 -6.848,-4.333l1.563,0c0.275,2.559 2.389,3.172 5.285,3.172c2.262,0 4.608,-0.494 4.608,-2.422c0,-1.86 -2.747,-2.082 -5.495,-2.44c-3.594,-0.461 -5.517,-1.28 -5.517,-3.242c0,-2.662 3.044,-3.532 5.961,-3.532c3.085,0 6.193,0.888 6.298,3.788l-1.565,0Z"
  /><path
  d="M194.212,91.099l12.006,0l0,1.16l-10.441,0l0,4.13l10.061,0l0,1.16l-10.061,0l0,4.574l10.61,0l0,1.16l-12.175,0l0,-12.184Z"
  /><path
  d="M227.908,91.099l1.691,0l-5.074,12.183l-1.817,0l-4.545,-10.409l-0.043,0l-4.481,10.409l-1.818,0l-5.01,-12.183l1.755,0l4.185,10.511l0.042,0l4.46,-10.511l1.923,0l4.46,10.511l0.042,0l4.23,-10.511Z"
  /><path
  d="M231.018,91.099l12.006,0l0,1.16l-10.442,0l0,4.13l10.061,0l0,1.16l-10.061,0l0,4.574l10.611,0l0,1.16l-12.175,0l0,-12.184Z"
  /><path
  d="M245.499,91.099l8.223,0c2.558,0 4.903,0.734 4.903,3.293c0,1.297 -0.993,2.594 -2.958,2.952l0,0.035c2.134,0.273 2.578,1.382 2.684,3.379c0.042,0.767 0.17,2.252 0.528,2.525l-1.69,0c-0.276,-0.257 -0.382,-1.16 -0.402,-2.492c-0.043,-2.149 -1.057,-2.866 -3.657,-2.866l-6.066,0l0,5.359l-1.565,0l0,-12.185Zm1.565,5.665l6.615,0c1.712,0 3.255,-0.512 3.255,-2.372c0,-1.791 -1.67,-2.133 -3.107,-2.133l-6.764,0l0,4.505l0.001,0Z"
  /><path
  d="M277.018,94.579c-0.211,-2.081 -2.303,-2.628 -4.734,-2.628c-2.431,0 -4.27,0.767 -4.27,2.15c0,1.587 1.839,1.962 5.517,2.457c2.747,0.375 5.495,0.888 5.495,3.225c0,2.985 -3.361,3.805 -6.298,3.805c-3.827,0 -6.616,-1.058 -6.849,-4.333l1.564,0c0.275,2.559 2.389,3.172 5.285,3.172c2.262,0 4.608,-0.494 4.608,-2.422c0,-1.86 -2.748,-2.082 -5.495,-2.44c-3.594,-0.461 -5.517,-1.28 -5.517,-3.242c0,-2.662 3.044,-3.532 5.96,-3.532c3.086,0 6.194,0.888 6.299,3.788l-1.565,0Z"
  /><path
  d="M281.162,91.099l8.139,0c2.325,0 4.544,0.938 4.544,3.515c0,2.304 -1.881,3.549 -5.241,3.549l-5.877,0l0,5.119l-1.564,0l0,-12.183l-0.001,0Zm1.565,5.903l6.046,0c2.62,0 3.381,-0.972 3.381,-2.389c0,-1.826 -1.267,-2.354 -3.064,-2.354l-6.362,0l0,4.743l-0.001,0Z"
  /><path
  d="M296.045,91.099l12.006,0l0,1.16l-10.441,0l0,4.13l10.061,0l0,1.16l-10.061,0l0,4.574l10.61,0l0,1.16l-12.175,0l0,-12.184Z"
  /><path
  d="M325.237,98.64c-0.338,2.73 -3.129,4.949 -7.461,4.949c-4.904,0 -8.033,-2.491 -8.033,-6.399c0,-2.781 2.135,-6.398 8.033,-6.398c3.297,0 6.869,1.211 7.334,4.419l-1.564,0c-0.465,-2.32 -3.044,-3.259 -5.77,-3.259c-3.741,0 -6.342,1.69 -6.342,5.238c0,2.713 1.755,5.238 6.342,5.238c3.593,0 5.368,-1.467 5.897,-3.788l1.564,0Z"
  /><rect x="327.67" y="91.099" width="1.565" height="12.183"
                                              /><path
  d="M342.362,99.579l-7.948,0l-2.05,3.703l-1.691,0l6.849,-12.183l1.817,0l6.849,12.183l-1.818,0l-2.009,-3.703Zm-3.952,-7.218l-3.361,6.057l6.68,0l-3.319,-6.057Z"
  /><path d="M347.456,91.099l1.565,0l0,11.023l9.575,0l0,1.16l-11.14,0l0,-12.183Z"
                                              /><rect x="360.162" y="91.099"
                                                                                          width="1.565" height="12.183"
                                                                                          /><path
  d="M374.916,94.579c-0.211,-2.081 -2.303,-2.628 -4.734,-2.628c-2.431,0 -4.27,0.767 -4.27,2.15c0,1.587 1.839,1.962 5.517,2.457c2.748,0.375 5.495,0.888 5.495,3.225c0,2.985 -3.36,3.805 -6.298,3.805c-3.827,0 -6.616,-1.058 -6.848,-4.333l1.563,0c0.275,2.559 2.389,3.172 5.285,3.172c2.262,0 4.608,-0.494 4.608,-2.422c0,-1.86 -2.747,-2.082 -5.495,-2.44c-3.594,-0.461 -5.516,-1.28 -5.516,-3.242c0,-2.662 3.043,-3.532 5.96,-3.532c3.085,0 6.193,0.888 6.298,3.788l-1.565,0Z"
  /><path
  d="M383.289,92.259l-5.919,0l0,-1.16l13.401,0l0,1.16l-5.919,0l0,11.023l-1.564,0l0,-11.023l0.001,0Z"
  /><path
  d="M402.356,94.579c-0.211,-2.081 -2.304,-2.628 -4.735,-2.628c-2.429,0 -4.269,0.767 -4.269,2.15c0,1.587 1.84,1.962 5.517,2.457c2.748,0.375 5.496,0.888 5.496,3.225c0,2.985 -3.361,3.805 -6.3,3.805c-3.825,0 -6.615,-1.058 -6.848,-4.333l1.565,0c0.274,2.559 2.389,3.172 5.284,3.172c2.262,0 4.608,-0.494 4.608,-2.422c0,-1.86 -2.748,-2.082 -5.496,-2.44c-3.593,-0.461 -5.516,-1.28 -5.516,-3.242c0,-2.662 3.044,-3.532 5.96,-3.532c3.087,0 6.194,0.888 6.299,3.788l-1.565,0Z"
  /></g>
  <g id="logo-rooter-inc"><path d="M0.097,1.4l34.223,0c15.743,0 22.473,7.757 22.473,21.332c0,13.006 -5.59,18.482 -13.576,19.622l0,0.228c4.563,0.343 8.671,2.625 10.838,6.502c2.052,3.65 2.168,9.128 2.168,13.919l0,6.729c0,4.565 0.456,8.443 1.026,9.583c0.57,1.142 1.369,1.94 2.395,2.395l0,1.142l-24.184,0c-1.484,-1.827 -1.711,-7.758 -1.711,-11.75c0,-3.994 -0.343,-8.1 -0.343,-12.092c0,-6.959 -2.282,-8.215 -6.275,-8.215l-4.22,0l0,32.057l-22.816,0l0,-81.452l0.002,0Zm22.815,34.338l3.309,0c3.765,0 7.756,-1.712 7.756,-9.584c0,-6.731 -3.308,-8.327 -8.441,-8.327l-2.624,0l0,17.911l0,0Z" />
    <path
      d="M116.676,51.936c0,17.454 -2.624,32.511 -27.036,32.511c-24.413,0 -27.037,-15.056 -27.037,-32.511c0,-17.34 2.624,-32.398 27.037,-32.398c24.412,0 27.036,15.058 27.036,32.398Zm-27.035,18.14c3.993,0 4.905,-3.766 4.905,-18.14c0,-14.373 -0.912,-18.138 -4.905,-18.138c-3.993,0 -4.906,3.765 -4.906,18.138c0,14.373 0.913,18.14 4.906,18.14Z"
      />
    <path
      d="M173.71,51.936c0,17.454 -2.624,32.511 -27.036,32.511c-24.412,0 -27.036,-15.056 -27.036,-32.511c0,-17.34 2.624,-32.398 27.036,-32.398c24.412,0 27.036,15.058 27.036,32.398Zm-27.036,18.14c3.993,0 4.905,-3.766 4.905,-18.14c0,-14.373 -0.912,-18.138 -4.905,-18.138c-3.992,0 -4.905,3.765 -4.905,18.138c0,14.373 0.912,18.14 4.905,18.14Z"
      />
    <path
      d="M181.577,2.997l22.131,0l0,18.138l7.757,0l0,14.374l-7.757,0l0,27.494c0,3.993 0.57,5.703 4.221,5.703c1.711,0 2.737,-0.115 3.536,-0.341l0,14.716c-1.825,0.227 -7.642,0.684 -10.951,0.684c-12.662,0 -18.937,-0.457 -18.937,-14.374l0,-33.882l-6.731,0l0,-14.374l6.731,0l0,-18.138Z"
      />
    <path
      d="M234.733,63.684c0,3.311 0.226,7.758 4.791,7.758c4.335,0 4.79,-3.99 4.79,-10.266l20.078,0c0,8.443 -2.279,14.262 -6.615,17.912c-4.334,3.649 -10.609,5.359 -18.139,5.359c-24.412,0 -27.036,-15.056 -27.036,-32.511c0,-17.34 2.624,-32.398 27.036,-32.398c25.211,0 25.438,15.743 25.438,35.022l0,1.028l-30.343,0l0,8.096Zm9.58,-23.384c0,-6.046 -1.368,-7.757 -4.904,-7.757c-3.193,0 -4.676,1.711 -4.676,7.757l0,3.65l9.58,0l0,-3.65Z"
      />
    <path
      d="M324.452,14.872c-6.269,1.166 -53.775,10.004 -53.775,10.004l-1.599,26.369c-0.001,0.001 -0.015,0.003 -0.015,0.003l0,32.339l22.133,0l0,-32.092c0,0 0,-7.089 0.205,-10.719c0.112,-1.968 -0.008,-4.306 2.681,-5.359c2.687,-1.055 38.767,-15.187 38.767,-15.187c0,0 -2.129,-6.525 -8.397,-5.358Z"
      />
    <path
      d="M270.342,22.734l17.921,-3.084c0,0 -0.416,-4.918 -0.499,-6.043c-0.084,-1.125 0.558,-2.408 2.291,-3.001c1.733,-0.593 25.337,-8.668 25.337,-8.668c0,0 -1.606,-2.655 -5.876,-1.75c-4.269,0.904 -31.378,6.501 -33.672,7.126c-2.293,0.624 -4.156,2.609 -4.375,4.708c-0.222,2.102 -1.127,10.712 -1.127,10.712Z"
      /></g>
  <g><path d="M327.833,24.588c-0.143,-0.177 -0.358,-0.279 -0.583,-0.279c-0.228,0 -0.44,0.102 -0.582,0.279c-0.594,0.735 -5.797,7.287 -5.797,10.563c0,3.518 2.86,6.381 6.379,6.381c3.517,0 6.378,-2.862 6.378,-6.381c0,-3.276 -5.202,-9.828 -5.796,-10.563Zm-3.671,12.86c-0.397,0.109 -0.762,-0.326 -0.921,-0.524c-0.123,-0.151 -0.282,-0.453 -0.379,-0.843c-0.092,-0.39 -0.123,-0.546 -0.102,-0.894c0.023,-0.348 0.124,-0.81 0.523,-0.921c0.397,-0.111 0.894,0.164 0.921,0.522c0.026,0.357 -0.085,0.465 0.062,0.908c0.147,0.445 0.268,0.456 0.418,0.83c0.151,0.374 -0.123,0.81 -0.523,0.922Z" />
    <rect x="321.641" y="45.439" width="11.25" height="37.574" />
    <path
      d="M339.422,45.439l10.835,0l0,4.445l0.139,0c1.599,-3.334 4.86,-5.418 9.029,-5.418c6.39,0 9.792,3.194 9.792,10.418l0,28.129l-11.25,0l0,-25.629c0,-2.706 -1.182,-4.308 -3.266,-4.308c-2.153,0 -4.028,1.669 -4.028,5.352l0,24.585l-11.251,0l0,-37.574Z"
      />
    <path
      d="M393.944,59.608c0,-5.488 -1.249,-7.778 -4.237,-7.778c-3.747,0 -4.234,4.723 -4.234,12.43c0,8.473 0.486,12.36 4.234,12.36c3.335,0 4.1,-2.289 4.237,-8.887l10.421,0c-0.072,11.599 -4.653,16.252 -14.865,16.252c-14.169,0 -15.279,-9.933 -15.279,-21.115c0,-10.554 3.057,-18.404 15.279,-18.404c11.807,0 14.865,6.182 14.865,15.141l-10.421,0l0,0.001Z"
      /></g>
  <g><path d="M0,91.099l8.138,0c2.326,0 4.545,0.938 4.545,3.515c0,2.304 -1.881,3.549 -5.241,3.549l-5.877,0l0,5.119l-1.564,0l0,-12.183l-0.001,0Zm1.564,5.903l6.046,0c2.621,0 3.382,-0.972 3.382,-2.389c0,-1.826 -1.267,-2.354 -3.065,-2.354l-6.362,0l0,4.743l-0.001,0Z" />
    <path d="M14.629,91.099l1.564,0l0,11.023l9.576,0l0,1.16l-11.14,0l0,-12.183Z"
          />
    <path
      d="M40.735,98.573c0,2.218 -0.761,5.016 -6.742,5.016c-5.981,0 -6.743,-2.798 -6.743,-5.016l0,-7.474l1.564,0l0,7.474c0,3.19 2.558,3.856 5.179,3.856c2.621,0 5.179,-0.666 5.179,-3.856l0,-7.474l1.563,0l0,7.474Z"
      />
    <path
      d="M59.338,91.099l2.22,0l0,12.183l-1.565,0l0,-10.528l-0.043,0l-6.657,10.528l-1.438,0l-6.638,-10.546l-0.042,0l0,10.546l-1.564,0l0,-12.183l2.283,0l6.721,10.596l6.723,-10.596Z"
      />
    <path
      d="M64.35,91.099l8.581,0c2.96,0 4.206,1.348 4.206,3.071c0,1.177 -0.802,2.27 -2.599,2.611l0,0.034c1.986,0.238 3.191,1.417 3.191,2.986c0,2.542 -2.663,3.481 -4.987,3.481l-8.392,0l0,-12.183Zm1.564,5.29l6.194,0c2.113,0 3.466,-0.547 3.466,-2.168c0.001,-1.484 -1.226,-1.962 -2.938,-1.962l-6.721,0l0,4.13Zm-0.001,5.733l6.574,0c2.03,0 3.552,-0.649 3.552,-2.321c0,-1.758 -1.353,-2.253 -3.171,-2.253l-6.954,0l0,4.574Z"
      />
    <rect x="80.184" y="91.099" width="1.565" height="12.183" />
    <path
      d="M84.707,91.099l1.882,0l10.547,10.408l0.042,0l0,-10.408l1.565,0l0,12.183l-1.818,0l-10.611,-10.409l-0.042,0l0,10.409l-1.565,0l0,-12.183Z"
      />
    <path
      d="M115.338,100.978l-0.043,0c-1.543,1.792 -3.319,2.611 -6.277,2.611c-5.115,0 -7.906,-2.594 -7.906,-6.399c0,-3.686 3.065,-6.398 8.075,-6.398c4.206,0 6.891,1.911 7.292,4.163l-1.691,0c-0.613,-2.064 -2.895,-3.003 -5.601,-3.003c-4.122,0 -6.384,2.03 -6.384,5.238c0,3.277 2.072,5.238 6.088,5.238c4.522,0 5.96,-2.081 6.425,-4.266l-5.538,0l0,-1.16l6.975,0l0,6.279l-1.204,0l-0.211,-2.303Z"
      />
    <path
      d="M135.59,99.579l-7.948,0l-2.049,3.703l-1.692,0l6.849,-12.183l1.818,0l6.849,12.183l-1.818,0l-2.009,-3.703Zm-3.952,-7.218l-3.36,6.057l6.679,0l-3.319,-6.057Z"
      />
    <path
      d="M140.687,91.099l1.88,0l10.548,10.408l0.043,0l0,-10.408l1.564,0l0,12.183l-1.818,0l-10.611,-10.409l-0.042,0l0,10.409l-1.564,0l0,-12.183Z"
      />
    <path
      d="M157.514,91.099l7.334,0c4.397,0 6.68,2.269 6.68,6.091c0,3.43 -2.22,6.092 -6.447,6.092l-7.567,0l0,-12.183l0,0Zm1.565,11.023l5.706,0c2.706,0 5.052,-1.196 5.052,-4.932c0,-3.224 -1.565,-4.931 -5.052,-4.931l-5.706,0l0,9.863Z"
      />
    <path
      d="M190.068,94.579c-0.211,-2.081 -2.303,-2.628 -4.734,-2.628c-2.431,0 -4.27,0.767 -4.27,2.15c0,1.587 1.839,1.962 5.517,2.457c2.748,0.375 5.496,0.888 5.496,3.225c0,2.985 -3.361,3.805 -6.299,3.805c-3.826,0 -6.616,-1.058 -6.848,-4.333l1.563,0c0.275,2.559 2.389,3.172 5.285,3.172c2.262,0 4.608,-0.494 4.608,-2.422c0,-1.86 -2.747,-2.082 -5.495,-2.44c-3.594,-0.461 -5.517,-1.28 -5.517,-3.242c0,-2.662 3.044,-3.532 5.961,-3.532c3.085,0 6.193,0.888 6.298,3.788l-1.565,0Z"
      />
    <path
      d="M194.212,91.099l12.006,0l0,1.16l-10.441,0l0,4.13l10.061,0l0,1.16l-10.061,0l0,4.574l10.61,0l0,1.16l-12.175,0l0,-12.184Z"
      />
    <path
      d="M227.908,91.099l1.691,0l-5.074,12.183l-1.817,0l-4.545,-10.409l-0.043,0l-4.481,10.409l-1.818,0l-5.01,-12.183l1.755,0l4.185,10.511l0.042,0l4.46,-10.511l1.923,0l4.46,10.511l0.042,0l4.23,-10.511Z"
      />
    <path
      d="M231.018,91.099l12.006,0l0,1.16l-10.442,0l0,4.13l10.061,0l0,1.16l-10.061,0l0,4.574l10.611,0l0,1.16l-12.175,0l0,-12.184Z"
      />
    <path
      d="M245.499,91.099l8.223,0c2.558,0 4.903,0.734 4.903,3.293c0,1.297 -0.993,2.594 -2.958,2.952l0,0.035c2.134,0.273 2.578,1.382 2.684,3.379c0.042,0.767 0.17,2.252 0.528,2.525l-1.69,0c-0.276,-0.257 -0.382,-1.16 -0.402,-2.492c-0.043,-2.149 -1.057,-2.866 -3.657,-2.866l-6.066,0l0,5.359l-1.565,0l0,-12.185Zm1.565,5.665l6.615,0c1.712,0 3.255,-0.512 3.255,-2.372c0,-1.791 -1.67,-2.133 -3.107,-2.133l-6.764,0l0,4.505l0.001,0Z"
      />
    <path
      d="M277.018,94.579c-0.211,-2.081 -2.303,-2.628 -4.734,-2.628c-2.431,0 -4.27,0.767 -4.27,2.15c0,1.587 1.839,1.962 5.517,2.457c2.747,0.375 5.495,0.888 5.495,3.225c0,2.985 -3.361,3.805 -6.298,3.805c-3.827,0 -6.616,-1.058 -6.849,-4.333l1.564,0c0.275,2.559 2.389,3.172 5.285,3.172c2.262,0 4.608,-0.494 4.608,-2.422c0,-1.86 -2.748,-2.082 -5.495,-2.44c-3.594,-0.461 -5.517,-1.28 -5.517,-3.242c0,-2.662 3.044,-3.532 5.96,-3.532c3.086,0 6.194,0.888 6.299,3.788l-1.565,0Z"
      />
    <path
      d="M281.162,91.099l8.139,0c2.325,0 4.544,0.938 4.544,3.515c0,2.304 -1.881,3.549 -5.241,3.549l-5.877,0l0,5.119l-1.564,0l0,-12.183l-0.001,0Zm1.565,5.903l6.046,0c2.62,0 3.381,-0.972 3.381,-2.389c0,-1.826 -1.267,-2.354 -3.064,-2.354l-6.362,0l0,4.743l-0.001,0Z"
      />
    <path
      d="M296.045,91.099l12.006,0l0,1.16l-10.441,0l0,4.13l10.061,0l0,1.16l-10.061,0l0,4.574l10.61,0l0,1.16l-12.175,0l0,-12.184Z"
      />
    <path
      d="M325.237,98.64c-0.338,2.73 -3.129,4.949 -7.461,4.949c-4.904,0 -8.033,-2.491 -8.033,-6.399c0,-2.781 2.135,-6.398 8.033,-6.398c3.297,0 6.869,1.211 7.334,4.419l-1.564,0c-0.465,-2.32 -3.044,-3.259 -5.77,-3.259c-3.741,0 -6.342,1.69 -6.342,5.238c0,2.713 1.755,5.238 6.342,5.238c3.593,0 5.368,-1.467 5.897,-3.788l1.564,0Z"
      />
    <rect x="327.67" y="91.099" width="1.565" height="12.183" />
    <path
      d="M342.362,99.579l-7.948,0l-2.05,3.703l-1.691,0l6.849,-12.183l1.817,0l6.849,12.183l-1.818,0l-2.009,-3.703Zm-3.952,-7.218l-3.361,6.057l6.68,0l-3.319,-6.057Z"
      />
    <path d="M347.456,91.099l1.565,0l0,11.023l9.575,0l0,1.16l-11.14,0l0,-12.183Z"
          />
    <rect x="360.162" y="91.099" width="1.565" height="12.183" />
    <path
      d="M374.916,94.579c-0.211,-2.081 -2.303,-2.628 -4.734,-2.628c-2.431,0 -4.27,0.767 -4.27,2.15c0,1.587 1.839,1.962 5.517,2.457c2.748,0.375 5.495,0.888 5.495,3.225c0,2.985 -3.36,3.805 -6.298,3.805c-3.827,0 -6.616,-1.058 -6.848,-4.333l1.563,0c0.275,2.559 2.389,3.172 5.285,3.172c2.262,0 4.608,-0.494 4.608,-2.422c0,-1.86 -2.747,-2.082 -5.495,-2.44c-3.594,-0.461 -5.516,-1.28 -5.516,-3.242c0,-2.662 3.043,-3.532 5.96,-3.532c3.085,0 6.193,0.888 6.298,3.788l-1.565,0Z"
      />
    <path d="M383.289,92.259l-5.919,0l0,-1.16l13.401,0l0,1.16l-5.919,0l0,11.023l-1.564,0l0,-11.023l0.001,0Z"
          />
    <path
      d="M402.356,94.579c-0.211,-2.081 -2.304,-2.628 -4.735,-2.628c-2.429,0 -4.269,0.767 -4.269,2.15c0,1.587 1.84,1.962 5.517,2.457c2.748,0.375 5.496,0.888 5.496,3.225c0,2.985 -3.361,3.805 -6.3,3.805c-3.825,0 -6.615,-1.058 -6.848,-4.333l1.565,0c0.274,2.559 2.389,3.172 5.284,3.172c2.262,0 4.608,-0.494 4.608,-2.422c0,-1.86 -2.748,-2.082 -5.496,-2.44c-3.593,-0.461 -5.516,-1.28 -5.516,-3.242c0,-2.662 3.044,-3.532 5.96,-3.532c3.087,0 6.194,0.888 6.299,3.788l-1.565,0Z"
      /></g></svg>
