<?xml version="1.0" encoding="utf-8"?>
<!-- Generator: Adobe Illustrator 15.1.0, SVG Export Plug-In . SVG Version: 6.00 Build 0)  -->
<!DOCTYPE svg PUBLIC "-//W3C//DTD SVG 1.1//EN" "http://www.w3.org/Graphics/SVG/1.1/DTD/svg11.dtd">
<svg version="1.1" id="Layer_1" xmlns="http://www.w3.org/2000/svg" xmlns:xlink="http://www.w3.org/1999/xlink" x="0px" y="0px"
	 width="864px" height="288px" viewBox="0 0 864 288" enable-background="new 0 0 864 288" xml:space="preserve">
<g>
	<path fill="#C24127" d="M162.626,77.659h45.631c20.991,0,29.964,10.343,29.964,28.443c0,17.341-7.453,24.642-18.101,26.162v0.305
		c6.084,0.457,11.561,3.5,14.45,8.669c2.737,4.867,2.891,12.171,2.891,18.558v8.973c0,6.086,0.608,11.257,1.368,12.777
		c0.76,1.522,1.826,2.587,3.194,3.193v1.523h-32.246c-1.978-2.436-2.281-10.344-2.281-15.667c0-5.325-0.458-10.8-0.458-16.123
		c0-9.278-3.042-10.953-8.366-10.953h-5.627v42.743h-30.421V77.659z M193.047,123.443h4.411c5.02,0,10.342-2.282,10.342-12.778
		c0-8.975-4.411-11.103-11.255-11.103h-3.499V123.443z"/>
	<path fill="#C24127" d="M318.065,145.041c0,23.272-3.499,43.348-36.048,43.348c-32.55,0-36.049-20.075-36.049-43.348
		c0-23.121,3.499-43.198,36.049-43.198C314.567,101.843,318.065,121.92,318.065,145.041z M282.018,169.227
		c5.324,0,6.54-5.021,6.54-24.186s-1.216-24.185-6.54-24.185c-5.324,0-6.541,5.021-6.541,24.185S276.694,169.227,282.018,169.227z"
		/>
	<path fill="#C24127" d="M394.11,145.041c0,23.272-3.498,43.348-36.048,43.348c-32.549,0-36.048-20.075-36.048-43.348
		c0-23.121,3.499-43.198,36.048-43.198C390.612,101.843,394.11,121.92,394.11,145.041z M358.062,169.227
		c5.324,0,6.54-5.021,6.54-24.186s-1.216-24.185-6.54-24.185c-5.323,0-6.54,5.021-6.54,24.185S352.739,169.227,358.062,169.227z"/>
	<path fill="#C24127" d="M404.6,79.789h29.508v24.184h10.342v19.165h-10.342v36.658c0,5.324,0.76,7.605,5.628,7.605
		c2.281,0,3.649-0.154,4.714-0.455v19.621c-2.433,0.303-10.189,0.912-14.601,0.912c-16.883,0-25.249-0.609-25.249-19.165v-45.176
		h-8.975v-19.165h8.975V79.789z"/>
	<path fill="#C24127" d="M475.474,160.705c0,4.414,0.302,10.344,6.388,10.344c5.78,0,6.387-5.321,6.387-13.688h26.771
		c0,11.257-3.039,19.016-8.82,23.882c-5.779,4.865-14.146,7.146-24.186,7.146c-32.549,0-36.048-20.075-36.048-43.348
		c0-23.121,3.499-43.198,36.048-43.198c33.615,0,33.918,20.991,33.918,46.696v1.371h-40.458V160.705z M488.248,129.526
		c0-8.062-1.824-10.343-6.539-10.343c-4.258,0-6.235,2.281-6.235,10.343v4.866h12.774V129.526z"/>
	<g>
		<path fill="#C24127" d="M591.352,136.378h15v50.098h-15V136.378z"/>
		<path fill="#C24127" d="M615.059,136.378h14.447v5.926h0.186c2.131-4.445,6.48-7.224,12.039-7.224
			c8.52,0,13.055,4.259,13.055,13.891v37.505h-15v-34.171c0-3.609-1.576-5.744-4.354-5.744c-2.871,0-5.371,2.225-5.371,7.135v32.78
			h-15.002V136.378z"/>
		<path fill="#C24127" d="M687.756,155.27c0-7.318-1.666-10.371-5.65-10.371c-4.996,0-5.645,6.297-5.645,16.574
			c0,11.297,0.648,16.48,5.645,16.48c4.447,0,5.467-3.053,5.65-11.85h13.895c-0.096,15.465-6.205,21.67-19.82,21.67
			c-18.893,0-20.373-13.244-20.373-28.154c0-14.072,4.076-24.539,20.373-24.539c15.742,0,19.82,8.243,19.82,20.189H687.756z"/>
	</g>
	<path fill="#C24127" d="M595.1,95.622c-8.359,1.555-71.701,13.339-71.701,13.339l-2.131,35.158c-0.002,0.001-0.02,0.004-0.02,0.004
		v43.119h29.51v-42.789c0,0,0-9.452,0.273-14.292c0.15-2.624-0.01-5.742,3.575-7.146c3.583-1.406,51.69-20.249,51.69-20.249
		S603.457,94.066,595.1,95.622z"/>
	<path fill="#C24127" d="M522.953,106.105l23.895-4.113c0,0-0.555-6.557-0.666-8.057c-0.111-1.5,0.745-3.21,3.055-4.001
		c2.311-0.791,33.783-11.558,33.783-11.558s-2.142-3.539-7.835-2.333c-5.692,1.205-41.837,8.668-44.896,9.501
		c-3.057,0.833-5.541,3.479-5.834,6.278C524.16,94.624,522.953,106.105,522.953,106.105z"/>
	<path fill="#365DAB" d="M599.607,108.576c-0.19-0.235-0.477-0.372-0.777-0.372c-0.303,0-0.586,0.137-0.776,0.372
		c-0.792,0.981-7.729,9.716-7.729,14.085c0,4.69,3.814,8.507,8.506,8.507c4.689,0,8.504-3.816,8.504-8.507
		C607.334,118.292,600.398,109.557,599.607,108.576z M594.711,125.723c-0.529,0.146-1.016-0.434-1.227-0.698
		c-0.164-0.202-0.377-0.605-0.506-1.124c-0.123-0.521-0.164-0.728-0.136-1.192c0.031-0.464,0.166-1.081,0.697-1.228
		c0.53-0.148,1.192,0.218,1.228,0.695c0.035,0.476-0.113,0.621,0.084,1.211c0.196,0.594,0.357,0.608,0.557,1.107
		C595.609,124.992,595.244,125.574,594.711,125.723z"/>
	<g>
		<path fill="#365DAB" d="M162.497,197.258h10.851c3.101,0,6.06,1.251,6.06,4.686c0,3.072-2.509,4.732-6.989,4.732h-7.835v6.826
			h-2.086V197.258z M164.583,205.129h8.061c3.494,0,4.509-1.297,4.509-3.186c0-2.434-1.69-3.139-4.086-3.139h-8.483V205.129z"/>
		<path fill="#365DAB" d="M182.002,197.258h2.086v14.697h12.767v1.547h-14.853V197.258z"/>
		<path fill="#365DAB" d="M216.811,207.223c0,2.957-1.015,6.688-8.99,6.688s-8.99-3.731-8.99-6.688v-9.965h2.085v9.965
			c0,4.254,3.41,5.141,6.905,5.141s6.905-0.887,6.905-5.141v-9.965h2.085V207.223z"/>
		<path fill="#365DAB" d="M241.614,197.258h2.96v16.244h-2.086v-14.037h-0.057l-8.877,14.037h-1.917l-8.85-14.061h-0.056v14.061
			h-2.086v-16.244h3.044l8.962,14.128L241.614,197.258z"/>
		<path fill="#365DAB" d="M248.297,197.258h11.442c3.946,0,5.608,1.797,5.608,4.095c0,1.569-1.07,3.026-3.466,3.481v0.045
			c2.648,0.318,4.255,1.889,4.255,3.981c0,3.39-3.551,4.642-6.65,4.642h-11.189V197.258z M250.383,204.311h8.258
			c2.818,0,4.622-0.729,4.622-2.89c0-1.979-1.635-2.616-3.918-2.616h-8.962V204.311z M250.383,211.955h8.765
			c2.706,0,4.735-0.865,4.735-3.095c0-2.343-1.804-3.003-4.228-3.003h-9.272V211.955z"/>
		<path fill="#365DAB" d="M269.409,197.258h2.086v16.244h-2.086V197.258z"/>
		<path fill="#365DAB" d="M275.44,197.258h2.509l14.063,13.877h0.056v-13.877h2.086v16.244h-2.424l-14.147-13.879h-0.057v13.879
			h-2.086V197.258z"/>
		<path fill="#365DAB" d="M316.281,210.43h-0.057c-2.058,2.389-4.425,3.481-8.37,3.481c-6.82,0-10.541-3.458-10.541-8.532
			c0-4.914,4.087-8.531,10.767-8.531c5.608,0,9.188,2.549,9.723,5.551h-2.255c-0.817-2.752-3.86-4.004-7.468-4.004
			c-5.496,0-8.512,2.707-8.512,6.984c0,4.369,2.762,6.984,8.117,6.984c6.03,0,7.947-2.775,8.567-5.688h-7.384v-1.547h9.3v8.373
			h-1.606L316.281,210.43z"/>
		<path fill="#365DAB" d="M343.284,208.564h-10.597l-2.733,4.938h-2.255l9.132-16.244h2.423l9.132,16.244h-2.424L343.284,208.564z
			 M338.015,198.941l-4.481,8.076h8.906L338.015,198.941z"/>
		<path fill="#365DAB" d="M350.079,197.258h2.508l14.063,13.877h0.057v-13.877h2.086v16.244h-2.424l-14.148-13.879h-0.056v13.879
			h-2.086V197.258z"/>
		<path fill="#365DAB" d="M372.516,197.258h9.779c5.862,0,8.906,3.025,8.906,8.121c0,4.573-2.96,8.123-8.596,8.123h-10.09V197.258z
			 M374.602,211.955h7.609c3.607,0,6.735-1.594,6.735-6.576c0-4.299-2.086-6.574-6.735-6.574h-7.609V211.955z"/>
		<path fill="#365DAB" d="M415.921,201.898c-0.281-2.775-3.071-3.504-6.312-3.504s-5.693,1.023-5.693,2.867
			c0,2.115,2.452,2.616,7.356,3.275c3.663,0.501,7.327,1.184,7.327,4.301c0,3.98-4.481,5.073-8.398,5.073
			c-5.102,0-8.821-1.411-9.131-5.778h2.085c0.366,3.412,3.185,4.23,7.046,4.23c3.016,0,6.144-0.659,6.144-3.23
			c0-2.479-3.663-2.775-7.327-3.253c-4.791-0.614-7.355-1.706-7.355-4.323c0-3.549,4.058-4.709,7.947-4.709
			c4.114,0,8.258,1.184,8.398,5.051H415.921z"/>
		<path fill="#365DAB" d="M421.447,197.258h16.008v1.547h-13.922v5.506h13.415v1.547h-13.415v6.098h14.147v1.547h-16.233V197.258z"
			/>
		<path fill="#365DAB" d="M466.374,197.258h2.255l-6.765,16.244h-2.423l-6.06-13.879h-0.057l-5.975,13.879h-2.424l-6.68-16.244h2.34
			l5.58,14.014h0.056l5.947-14.014h2.564l5.946,14.014h0.057L466.374,197.258z"/>
		<path fill="#365DAB" d="M470.521,197.258h16.008v1.547h-13.923v5.506h13.415v1.547h-13.415v6.098h14.148v1.547h-16.233V197.258z"
			/>
		<path fill="#365DAB" d="M489.829,197.258h10.964c3.41,0,6.538,0.979,6.538,4.391c0,1.729-1.324,3.458-3.945,3.936v0.046
			c2.846,0.364,3.438,1.843,3.579,4.505c0.056,1.023,0.226,3.003,0.704,3.367h-2.254c-0.367-0.342-0.508-1.547-0.536-3.322
			c-0.057-2.866-1.409-3.822-4.875-3.822h-8.089v7.145h-2.086V197.258z M491.915,204.811h8.821c2.282,0,4.34-0.683,4.34-3.162
			c0-2.389-2.227-2.844-4.143-2.844h-9.019V204.811z"/>
		<path fill="#365DAB" d="M531.854,201.898c-0.281-2.775-3.071-3.504-6.312-3.504s-5.693,1.023-5.693,2.867
			c0,2.115,2.452,2.616,7.356,3.275c3.663,0.501,7.327,1.184,7.327,4.301c0,3.98-4.481,5.073-8.398,5.073
			c-5.102,0-8.821-1.411-9.131-5.778h2.085c0.366,3.412,3.185,4.23,7.046,4.23c3.016,0,6.144-0.659,6.144-3.23
			c0-2.479-3.663-2.775-7.327-3.253c-4.791-0.614-7.355-1.706-7.355-4.323c0-3.549,4.058-4.709,7.947-4.709
			c4.114,0,8.258,1.184,8.398,5.051H531.854z"/>
		<path fill="#365DAB" d="M537.38,197.258h10.851c3.101,0,6.06,1.251,6.06,4.686c0,3.072-2.509,4.732-6.989,4.732h-7.835v6.826
			h-2.086V197.258z M539.466,205.129h8.061c3.494,0,4.509-1.297,4.509-3.186c0-2.434-1.69-3.139-4.086-3.139h-8.483V205.129z"/>
		<path fill="#365DAB" d="M557.224,197.258h16.008v1.547H559.31v5.506h13.415v1.547H559.31v6.098h14.147v1.547h-16.233V197.258z"/>
		<path fill="#365DAB" d="M596.146,207.313c-0.45,3.64-4.171,6.598-9.948,6.598c-6.538,0-10.71-3.321-10.71-8.532
			c0-3.708,2.847-8.531,10.71-8.531c4.396,0,9.159,1.615,9.779,5.893h-2.085c-0.62-3.094-4.059-4.346-7.694-4.346
			c-4.988,0-8.455,2.253-8.455,6.984c0,3.617,2.34,6.984,8.455,6.984c4.791,0,7.158-1.956,7.863-5.05H596.146z"/>
		<path fill="#365DAB" d="M599.391,197.258h2.086v16.244h-2.086V197.258z"/>
		<path fill="#365DAB" d="M618.979,208.564h-10.597l-2.733,4.938h-2.255l9.132-16.244h2.423l9.132,16.244h-2.424L618.979,208.564z
			 M613.709,198.941l-4.481,8.076h8.906L613.709,198.941z"/>
		<path fill="#365DAB" d="M625.772,197.258h2.086v14.697h12.767v1.547h-14.853V197.258z"/>
		<path fill="#365DAB" d="M642.713,197.258h2.086v16.244h-2.086V197.258z"/>
		<path fill="#365DAB" d="M662.385,201.898c-0.281-2.775-3.071-3.504-6.312-3.504s-5.693,1.023-5.693,2.867
			c0,2.115,2.452,2.616,7.356,3.275c3.663,0.501,7.327,1.184,7.327,4.301c0,3.98-4.481,5.073-8.398,5.073
			c-5.102,0-8.821-1.411-9.131-5.778h2.085c0.366,3.412,3.185,4.23,7.046,4.23c3.016,0,6.144-0.659,6.144-3.23
			c0-2.479-3.663-2.775-7.327-3.253c-4.791-0.614-7.355-1.706-7.355-4.323c0-3.549,4.058-4.709,7.947-4.709
			c4.114,0,8.258,1.184,8.398,5.051H662.385z"/>
		<path fill="#365DAB" d="M673.549,198.805h-7.892v-1.547h17.868v1.547h-7.892v14.697h-2.085V198.805z"/>
		<path fill="#365DAB" d="M698.972,201.898c-0.282-2.775-3.072-3.504-6.313-3.504c-3.24,0-5.692,1.023-5.692,2.867
			c0,2.115,2.452,2.616,7.355,3.275c3.664,0.501,7.328,1.184,7.328,4.301c0,3.98-4.481,5.073-8.399,5.073
			c-5.101,0-8.821-1.411-9.131-5.778h2.086c0.366,3.412,3.185,4.23,7.045,4.23c3.016,0,6.145-0.659,6.145-3.23
			c0-2.479-3.664-2.775-7.328-3.253c-4.791-0.614-7.355-1.706-7.355-4.323c0-3.549,4.059-4.709,7.947-4.709
			c4.115,0,8.258,1.184,8.398,5.051H698.972z"/>
	</g>
</g>
</svg>
